<svg width="1079" height="1079" viewBox="0 0 1079 1079" fill="none" xmlns="http://www.w3.org/2000/svg">
<rect y="0.196777" width="1078" height="1078" rx="167.5" fill="white"/>
<path fill-rule="evenodd" clip-rule="evenodd" d="M149.573 0.967467C130.938 3.10217 108.968 9.56246 92.4064 17.777C45.7944 40.8981 12.3242 84.7611 2.2464 135.933C0.476438 144.917 0.389438 160.964 0.0964446 533.11C-0.13155 822.165 0.0854417 923.665 0.949422 931.684C6.5753 983.898 38.0146 1030.13 86.3875 1057.33C100.759 1065.41 118.392 1071.68 138.557 1075.88C145.762 1077.38 177.737 1077.54 532.89 1077.86C887.537 1078.17 920.411 1078.06 931.881 1076.57C979.839 1070.33 1024.01 1042.82 1050.44 1002.73C1064.52 981.371 1073.14 958.675 1076.44 934.252C1078.55 918.636 1078.53 159.227 1076.42 143.817C1074.64 130.818 1072.69 122.611 1068.77 111.592C1050.36 59.8601 1005.5 18.9735 952.171 5.31868C929.888 -0.387666 953.725 -0.0851055 538.088 0.0558284C328.158 0.127774 153.327 0.537766 149.573 0.967467ZM901.082 282.893C921.701 287.167 936.549 303.793 939.781 326.226C940.36 330.246 942.428 344.18 944.377 357.189C951.187 402.653 957.8 449.874 958.089 455.099L958.38 460.367L952.318 462.224C935.459 467.386 923.89 480.4 920.167 498.392C914.447 526.033 937.729 552.724 967.63 552.807C970.518 552.814 972.88 553.162 972.88 553.579C972.88 553.995 976.29 577.612 980.458 606.06C990.552 674.959 990.784 681.402 983.662 695.16C981.042 700.223 971.525 710.052 966.347 713.044C957.557 718.122 966.609 716.682 777.531 743.074C753.962 746.364 733.262 748.921 731.532 748.755C728.76 748.489 728.266 747.972 727.385 744.411C726.073 739.106 724.274 737.12 720.786 737.12C716.955 737.12 714.543 740.711 715.38 745.169C715.773 747.26 715.504 749.112 714.64 750.266C713.179 752.216 716.027 751.787 576.389 771.123C542.839 775.769 464.541 786.664 402.392 795.334C292.502 810.665 215.65 821.331 207.283 822.411C196.75 823.772 181.375 818.619 172.186 810.646C166.699 805.886 160.635 796.989 158.471 790.524C156.962 786.015 140.525 677.335 138.7 659.804C138.409 657.003 138.672 656.805 145.898 654.378C155.619 651.113 159.558 648.632 166.138 641.627C175.65 631.502 179.466 620.944 178.66 606.997C178.234 599.645 177.591 597.064 174.688 591.046C169.684 580.676 162.549 573.431 152.546 568.562C143.943 564.375 133.771 562.114 128.178 563.147C125.401 563.659 124.884 563.43 124.426 561.484C122.427 552.993 106.645 438.734 106.213 429.627C105.742 419.687 105.945 417.512 107.864 411.941C113.586 395.33 127.325 383.456 144.398 380.367C147.698 379.769 165.473 377.315 183.897 374.912C202.322 372.51 249.571 366.297 288.895 361.107C414.252 344.56 536.797 328.372 590.678 321.239C619.438 317.432 644.249 314.318 645.816 314.318C651.498 314.318 652.607 316.474 654.944 332.058C656.285 341.006 657.668 346.993 658.642 348.073C660.877 350.553 665.519 350.287 667.296 347.58C668.584 345.619 668.503 343.616 666.595 330.227L664.438 315.089L666.956 312.955C669.185 311.065 674.907 310.111 716.929 304.628C760.756 298.909 829.51 289.816 870.382 284.333C890.632 281.617 894.134 281.453 901.082 282.893ZM802.636 373.171C797.47 373.943 798.077 376.947 806.196 390.796C810.296 397.789 813.365 403.803 813.017 404.161C812.668 404.518 802.05 406.278 789.419 408.068C765.105 411.518 762.884 412.275 762.884 417.12C762.884 420.863 765.253 423.139 769.018 423.013C770.869 422.951 781.787 421.745 793.281 420.331C804.773 418.917 814.411 417.992 814.698 418.275C815.27 418.839 814.59 421.874 810.331 437.776C807.787 447.277 807.649 448.544 809.012 449.887C810.146 451.005 811.615 451.218 814.772 450.72L819.011 450.052L827.928 432.496C837.939 412.786 835.402 415.006 850.382 412.843C860.045 411.449 863.17 407.661 859.231 402.119C857.675 399.929 857.162 399.831 850.244 400.408C846.209 400.744 841.162 401.295 839.027 401.631L835.147 402.242L821.943 387.354C813.947 378.337 808.078 372.524 807.061 372.613C806.138 372.694 804.148 372.945 802.636 373.171ZM663.396 378.72C662.004 380.813 662.043 382.265 663.799 394.053C664.866 401.215 666.277 407.714 666.935 408.495C667.593 409.277 669.66 409.916 671.53 409.916C676.97 409.916 677.553 407.38 675.435 392.92C674.461 386.277 673.03 379.845 672.253 378.625C670.303 375.565 665.459 375.617 663.396 378.72ZM430.892 430.682C426.217 431.11 408.892 433.47 392.393 435.927C375.893 438.383 350.019 442.168 334.894 444.338C319.769 446.507 296.626 449.851 283.464 451.767C270.303 453.684 259.177 455.252 258.739 455.252C258.3 455.252 257.239 456.309 256.38 457.601C254.968 459.726 254.965 460.885 256.35 469.674C257.193 475.022 260.367 496.251 263.404 516.849C266.441 537.447 270.255 562.948 271.881 573.518C275.501 597.043 284.701 658.546 289.828 693.491C291.914 707.711 294.188 720.018 294.88 720.84C296.598 722.88 298.584 722.774 322.525 719.363C350.499 715.378 356.169 714.387 357.643 713.225C359.543 711.728 359.202 706.993 355.352 681.359C348.782 637.633 348.268 632.845 349.966 631.172C350.998 630.155 362.166 628.149 385.927 624.714C415.294 620.469 420.714 619.922 422.568 621.018C423.764 621.724 441.471 637.825 461.916 656.797C482.361 675.769 500.056 691.789 501.239 692.397C502.936 693.269 511.098 692.379 539.889 688.186C576.645 682.831 578.894 682.275 578.887 678.537C578.886 677.963 573.835 673.059 567.663 667.638C561.49 662.218 544.099 646.695 529.015 633.144C513.931 619.593 500.082 607.253 498.24 605.723C496.397 604.193 494.893 602.419 494.898 601.781C494.902 601.143 496.814 599.553 499.148 598.249C525.725 583.396 541.889 555.595 541.889 524.736C541.889 498.85 534.235 476.76 519.288 459.517C505.745 443.895 483.089 433.264 457.727 430.631C447.284 429.547 443.186 429.554 430.892 430.682ZM672.886 438.497C670.467 440.881 670.467 440.188 672.886 454.759C673.966 461.264 674.858 466.886 674.868 467.255C674.909 468.779 678.192 471.021 680.386 471.021C683.659 471.021 685.885 468.502 685.892 464.791C685.905 457.389 682.53 440.118 680.722 438.336C678.33 435.978 675.38 436.039 672.886 438.497ZM819.059 485.33C783.618 490.189 773.316 491.918 771.81 493.262C767.454 497.148 771.301 504.199 777.228 503.193C778.964 502.897 800.859 499.928 825.883 496.594C858.716 492.218 871.869 490.105 873.132 489C875.412 487.006 875.371 482.603 873.053 480.536C872.029 479.622 869.719 478.951 867.803 479.011C865.922 479.07 843.987 481.913 819.059 485.33ZM453.363 489.82C460.56 492.474 468.704 499.836 472.179 506.831C477.787 518.119 477.492 534.273 471.493 544.362C466.548 552.677 456.163 560.006 445.778 562.51C440.811 563.709 345.232 577.46 341.874 577.46C340.727 577.46 339.435 576.499 338.891 575.243C338.362 574.024 335.702 557.725 332.979 539.024C328.337 507.15 328.133 504.918 329.711 503.357C331.004 502.076 341.239 500.279 373.893 495.595C397.268 492.242 420.442 488.916 425.392 488.204C436.527 486.601 446.138 487.156 453.363 489.82ZM681.397 499.59C679.666 501.474 679.666 502.048 681.378 514.619C683.651 531.311 686.638 535.338 692.985 530.273L695.306 528.42L693.509 515.243C692.521 507.995 691.066 501.067 690.276 499.848C688.457 497.039 683.862 496.905 681.397 499.59ZM690.886 559.72C688.463 562.108 688.465 560.694 690.871 576.632C692.955 590.429 693.842 592.243 698.506 592.243C701.688 592.243 703.895 589.66 703.828 586.014C703.797 584.29 702.976 577.832 702.005 571.66C700.673 563.203 699.779 560.11 698.371 559.094C695.752 557.207 693.221 557.419 690.886 559.72ZM699.451 620.753C697.791 622.561 697.795 623.29 699.52 635.758C701.451 649.703 702.686 652.362 707.231 652.362C710.113 652.362 712.886 649.513 712.886 646.55C712.886 640.555 709.503 622.125 708.119 620.578C706.076 618.295 701.627 618.384 699.451 620.753ZM708.99 679.603C706.793 681.119 706.696 681.623 707.343 688.095C708.51 699.767 710.571 709.707 712.012 710.607C714.678 712.272 718.785 711.576 720.371 709.19C721.755 707.109 721.724 705.67 720.053 694.352C718.969 687.011 717.619 681.273 716.794 680.502C714.381 678.245 711.447 677.907 708.99 679.603Z" fill="#FF6900"/>
</svg>
